<svg id="svg" version="1.1" xmlns="http://www.w3.org/2000/svg" xmlns:xlink="http://www.w3.org/1999/xlink" width="400" height="569.2307692307692" viewBox="0, 0, 400,569.2307692307692"><g id="svgg"><path id="path0" d="M26.600 14.337 C 24.010 15.306,22.009 16.497,20.600 17.909 C 18.178 20.336,17.728 20.911,17.402 22.000 C 17.237 22.550,16.899 23.250,16.651 23.556 C 16.403 23.861,15.880 25.301,15.490 26.756 C 15.099 28.210,14.609 30.030,14.399 30.800 C 13.906 32.617,13.906 44.183,14.399 46.000 C 14.608 46.770,15.089 48.570,15.467 50.000 C 15.845 51.430,16.377 52.826,16.651 53.102 C 16.924 53.379,17.275 54.007,17.431 54.498 C 17.802 55.666,21.260 59.041,22.462 59.409 C 22.978 59.566,24.198 60.053,25.174 60.491 C 27.403 61.491,33.946 61.387,35.600 60.325 C 36.150 59.972,37.023 59.557,37.539 59.402 C 38.056 59.248,38.866 58.770,39.339 58.340 C 41.284 56.575,42.399 55.381,42.400 55.062 C 42.400 54.876,42.754 54.226,43.188 53.617 C 44.193 52.206,44.764 46.687,44.327 42.610 C 43.871 38.353,41.832 34.909,38.136 32.153 C 35.441 30.143,26.556 30.076,24.051 32.046 C 22.611 33.178,22.000 32.426,22.000 29.522 C 22.000 21.904,31.066 16.890,35.600 22.000 C 37.624 24.281,44.280 24.824,43.479 22.643 C 43.390 22.399,43.016 21.286,42.649 20.168 C 41.203 15.771,31.851 12.373,26.600 14.337 M32.066 36.826 C 40.805 40.271,38.818 55.004,29.615 54.998 C 20.903 54.993,18.467 40.700,26.548 37.004 C 29.124 35.826,29.498 35.814,32.066 36.826 M76.766 89.372 C 55.463 110.739,52.897 113.408,53.263 113.810 C 53.339 113.892,63.840 124.416,76.600 137.197 C 101.999 162.636,100.421 161.333,102.718 158.766 C 103.313 158.101,113.340 147.973,125.000 136.259 C 149.257 111.890,147.385 113.892,146.847 112.887 C 146.303 111.871,101.853 67.364,100.841 66.822 C 100.408 66.590,99.966 66.400,99.860 66.400 C 99.754 66.400,89.362 76.737,76.766 89.372 M299.111 66.826 C 298.115 67.406,253.623 112.009,253.141 112.911 C 252.833 113.485,252.912 113.863,253.468 114.485 C 257.160 118.612,299.306 160.400,299.777 160.400 C 300.330 160.400,346.411 114.442,346.731 113.572 C 346.930 113.030,300.777 66.381,300.073 66.412 C 299.923 66.419,299.490 66.605,299.111 66.826 M21.543 81.199 L 14.485 88.328 15.192 89.464 C 16.081 90.891,28.953 103.600,29.510 103.600 C 30.241 103.600,44.000 89.491,44.000 88.742 C 44.000 87.789,30.199 73.989,29.292 74.035 C 28.912 74.054,25.424 77.278,21.543 81.199 M76.795 260.591 C 64.169 273.239,53.674 283.882,53.473 284.240 C 52.935 285.203,99.419 331.711,100.558 331.350 C 101.363 331.094,146.147 286.421,146.775 285.247 C 146.987 284.850,146.981 284.309,146.759 283.912 C 146.071 282.683,101.340 238.098,100.540 237.845 C 99.898 237.641,95.491 241.862,76.795 260.591 M299.255 237.880 C 298.589 238.145,253.742 283.017,253.231 283.930 C 253.019 284.309,253.015 284.854,253.221 285.239 C 253.862 286.436,298.712 331.118,299.536 331.380 C 300.200 331.591,304.346 327.611,323.267 308.595 C 347.358 284.385,346.923 284.845,346.446 284.074 C 345.902 283.195,300.395 237.599,300.093 237.632 C 299.932 237.649,299.555 237.761,299.255 237.880 M76.600 432.003 C 63.840 444.784,53.339 455.308,53.263 455.390 C 52.901 455.788,55.375 458.362,76.259 479.315 C 102.151 505.294,99.701 502.988,100.795 502.403 C 101.831 501.848,146.301 457.332,146.858 456.292 C 147.384 455.310,149.089 457.134,125.800 433.767 C 114.580 422.510,104.553 412.382,103.517 411.261 C 100.269 407.746,102.650 405.912,76.600 432.003 M276.478 431.535 C 250.499 457.580,252.625 455.326,253.133 456.274 C 253.671 457.278,298.247 501.890,299.245 502.424 C 300.294 502.985,298.167 504.978,322.104 481.000 C 345.680 457.383,346.910 456.116,346.731 455.632 C 346.400 454.743,300.352 408.800,299.792 408.800 C 299.442 408.800,288.951 419.031,276.478 431.535 M364.600 471.055 C 361.740 474.004,358.797 477.042,358.060 477.808 C 357.323 478.574,356.558 479.200,356.360 479.200 C 356.162 479.200,356.000 479.636,356.000 480.169 C 356.000 481.270,369.549 495.200,370.621 495.200 C 370.953 495.200,374.441 491.978,378.372 488.039 L 385.519 480.879 384.806 479.739 C 383.703 477.979,371.019 465.594,370.373 465.647 C 370.058 465.673,367.460 468.107,364.600 471.055 M365.800 508.362 C 365.360 508.517,364.331 508.949,363.513 509.322 C 362.695 509.695,361.880 510.000,361.702 510.000 C 361.524 510.000,361.075 510.315,360.704 510.700 C 360.333 511.085,359.484 511.940,358.816 512.600 C 358.147 513.260,357.601 513.942,357.600 514.116 C 357.600 514.290,357.248 514.920,356.818 515.516 C 355.060 517.954,355.075 528.898,356.839 531.141 C 357.258 531.673,357.602 532.309,357.605 532.554 C 357.611 533.067,360.199 535.792,361.882 537.057 C 364.606 539.104,373.675 539.131,375.888 537.098 C 377.270 535.829,378.000 536.721,378.000 539.678 C 378.000 547.296,368.934 552.310,364.400 547.200 C 363.071 545.702,362.632 545.466,360.846 545.295 C 359.214 545.138,356.400 545.702,356.400 546.186 C 356.400 557.251,379.268 558.043,382.624 547.094 C 382.775 546.602,383.101 545.950,383.349 545.644 C 383.763 545.134,384.559 542.514,385.657 538.045 C 386.223 535.742,385.960 522.717,385.331 521.954 C 385.081 521.649,384.655 520.275,384.386 518.900 C 384.116 517.525,383.761 516.400,383.596 516.400 C 383.432 516.400,383.059 515.815,382.769 515.100 C 380.762 510.160,371.328 506.413,365.800 508.362 M374.528 515.372 C 380.277 519.757,379.423 529.578,373.054 532.328 L 370.717 533.338 368.485 532.579 C 358.977 529.347,361.037 513.473,370.874 514.161 C 372.549 514.278,373.511 514.597,374.528 515.372 " stroke="none" fill="#fc0808" fill-rule="evenodd"></path><path id="path1" d="M10.722 2.375 C 10.180 2.802,9.264 3.269,8.687 3.414 C 7.331 3.754,3.657 7.425,3.330 8.766 C 3.191 9.335,2.745 10.229,2.339 10.754 C 1.149 12.290,1.185 556.964,2.375 558.478 C 2.802 559.020,3.269 559.936,3.414 560.513 C 3.755 561.872,7.328 565.445,8.687 565.786 C 9.264 565.931,10.180 566.398,10.722 566.825 C 12.275 568.046,387.725 568.046,389.278 566.825 C 389.820 566.398,390.736 565.931,391.313 565.786 C 392.688 565.441,396.247 561.864,396.592 560.482 C 396.741 559.887,397.163 559.066,397.531 558.658 C 398.667 557.398,398.754 12.277,397.619 10.740 C 397.188 10.157,396.720 9.220,396.579 8.659 C 396.244 7.325,392.561 3.654,391.234 3.330 C 390.665 3.191,389.771 2.745,389.246 2.339 C 387.710 1.149,12.235 1.185,10.722 2.375 M38.941 14.581 C 45.981 18.693,46.778 25.606,40.211 25.597 C 37.987 25.594,37.057 25.098,34.607 22.607 C 32.931 20.903,29.420 20.312,27.983 21.492 C 25.555 23.486,24.400 24.682,24.400 25.203 C 24.400 25.538,24.040 26.484,23.600 27.304 C 21.826 30.614,22.981 31.541,26.582 29.699 C 28.419 28.760,32.286 28.604,34.400 29.384 C 35.390 29.750,36.740 30.217,37.400 30.421 C 41.755 31.774,46.230 39.721,46.179 46.012 C 46.155 48.834,44.632 54.374,43.729 54.920 C 43.438 55.096,43.200 55.472,43.200 55.755 C 43.200 56.500,39.865 59.513,37.676 60.744 C 34.673 62.434,25.135 62.354,22.200 60.615 C 20.130 59.388,16.800 56.348,16.800 55.686 C 16.800 55.478,16.463 54.879,16.052 54.354 C 15.641 53.829,15.167 52.773,15.000 52.006 C 14.832 51.239,14.438 50.220,14.125 49.741 C 12.730 47.612,12.770 29.566,14.176 26.847 C 14.519 26.183,14.801 25.406,14.802 25.120 C 14.808 22.823,19.882 15.984,22.201 15.145 C 22.970 14.867,23.600 14.501,23.600 14.331 C 23.600 12.727,36.117 12.931,38.941 14.581 M27.205 37.895 C 23.546 38.578,21.579 45.502,23.792 49.908 C 26.942 56.181,34.873 54.966,35.905 48.054 C 37.021 40.582,33.684 36.685,27.205 37.895 M123.442 87.500 C 135.896 99.985,146.722 110.971,147.501 111.912 L 148.916 113.624 147.958 114.686 C 144.816 118.169,101.635 161.155,100.867 161.565 C 99.649 162.216,101.866 164.288,75.656 138.006 C 50.639 112.920,51.713 114.098,52.493 112.610 C 53.271 111.126,99.515 64.800,100.219 64.800 C 100.538 64.800,110.989 75.015,123.442 87.500 M323.638 88.100 C 348.253 112.783,348.469 113.025,347.368 114.705 C 346.526 115.991,302.625 160.171,301.111 161.258 C 300.195 161.914,299.875 161.962,299.111 161.554 C 297.951 160.935,251.200 114.092,251.200 113.549 C 251.200 112.779,299.071 64.800,299.839 64.800 C 300.149 64.800,310.859 75.285,323.638 88.100 M37.838 80.179 C 46.982 89.344,46.812 88.050,39.809 95.141 C 30.683 104.382,30.233 104.800,29.429 104.800 C 28.360 104.800,13.737 90.229,13.486 88.914 C 13.303 87.957,26.695 73.772,28.425 73.090 C 29.958 72.485,30.778 73.103,37.838 80.179 M124.218 259.500 C 150.558 285.950,148.800 284.155,148.800 284.600 C 148.800 285.331,100.942 333.200,100.212 333.200 C 99.671 333.200,56.965 290.774,53.155 286.452 L 51.614 284.704 52.370 283.643 C 53.835 281.584,99.605 236.000,100.206 236.000 C 100.541 236.000,111.347 246.575,124.218 259.500 M323.552 259.162 C 336.271 271.901,347.048 282.832,347.501 283.454 L 348.324 284.583 347.528 285.702 C 346.050 287.777,300.413 333.200,299.806 333.200 C 299.475 333.200,288.675 322.625,275.806 309.700 C 248.803 282.579,251.200 285.024,251.200 284.600 C 251.200 284.176,248.803 286.621,275.806 259.500 C 288.675 246.575,299.479 236.000,299.815 236.000 C 300.151 236.000,310.832 246.423,323.552 259.162 M100.926 407.666 C 101.654 408.055,144.958 451.189,147.966 454.522 L 148.932 455.592 147.166 457.696 C 146.195 458.853,144.870 460.250,144.221 460.800 C 143.572 461.350,142.492 462.404,141.821 463.142 C 137.598 467.785,100.663 504.400,100.203 504.400 C 99.512 504.400,53.253 458.040,52.489 456.583 C 52.026 455.699,52.031 455.413,52.520 454.672 C 53.258 453.553,99.395 407.200,99.770 407.200 C 99.926 407.200,100.446 407.410,100.926 407.666 M323.633 430.296 C 348.940 455.681,348.330 455.006,347.462 456.670 C 346.682 458.162,300.550 504.400,299.840 504.400 C 299.080 504.400,251.200 456.411,251.200 455.648 C 251.200 455.154,297.848 408.346,299.000 407.684 C 299.440 407.431,299.980 407.217,300.200 407.209 C 300.420 407.200,310.965 417.589,323.633 430.296 M372.537 465.598 C 373.866 466.765,380.726 473.598,384.457 477.472 C 387.571 480.704,387.806 480.183,379.432 488.584 C 374.185 493.848,371.685 496.083,370.860 496.248 C 369.347 496.551,354.800 482.320,354.800 480.537 C 354.800 479.353,369.325 464.416,370.486 464.406 C 370.863 464.403,371.786 464.939,372.537 465.598 M377.700 508.487 C 379.621 509.548,383.200 512.819,383.200 513.514 C 383.200 513.722,383.537 514.321,383.948 514.846 C 384.359 515.371,384.833 516.427,385.000 517.194 C 385.168 517.961,385.563 518.982,385.878 519.463 C 387.258 521.569,387.220 539.654,385.830 542.342 C 385.483 543.012,385.200 543.780,385.200 544.049 C 385.200 546.349,379.837 553.504,377.600 554.189 C 377.050 554.357,376.266 554.788,375.858 555.147 C 374.406 556.426,363.848 556.078,361.253 554.667 C 354.077 550.764,353.128 543.594,359.789 543.603 C 362.013 543.606,362.943 544.102,365.393 546.593 C 367.212 548.443,371.217 548.984,372.052 547.493 C 372.265 547.112,372.661 546.800,372.931 546.800 C 373.528 546.800,375.600 544.505,375.600 543.843 C 375.600 543.583,375.960 542.663,376.400 541.800 C 378.090 538.486,377.018 537.660,373.418 539.501 C 371.581 540.440,367.714 540.596,365.600 539.816 C 364.610 539.450,363.260 538.983,362.600 538.779 C 360.115 538.007,355.205 532.269,355.198 530.129 C 355.196 529.728,354.905 528.860,354.550 528.200 C 353.644 526.513,353.603 520.782,354.481 518.400 C 354.846 517.410,355.246 516.122,355.370 515.538 C 355.847 513.295,361.542 508.341,364.647 507.467 C 367.126 506.770,375.820 507.449,377.700 508.487 M367.200 516.172 C 361.853 519.705,362.998 530.420,368.827 531.405 C 373.858 532.254,377.200 528.994,377.200 523.237 C 377.200 521.375,377.020 520.349,376.639 520.033 C 376.331 519.777,375.969 519.132,375.836 518.600 C 375.129 515.782,369.981 514.335,367.200 516.172 " stroke="none" fill="#fcfbfb" fill-rule="evenodd"></path><path id="path2" d="M7.600 0.400 C 7.600 0.620,7.165 0.800,6.633 0.800 C 5.141 0.800,4.400 1.213,4.400 2.043 C 4.400 2.533,4.118 2.800,3.600 2.800 C 3.067 2.800,2.800 3.067,2.800 3.600 C 2.800 4.132,2.533 4.400,2.005 4.400 C 1.386 4.400,1.153 4.756,0.954 6.000 C 0.813 6.880,0.541 7.600,0.349 7.600 C 0.151 7.600,0.000 127.260,0.000 284.600 C 0.000 441.940,0.151 561.600,0.349 561.600 C 0.541 561.600,0.813 562.320,0.954 563.200 C 1.153 564.444,1.386 564.800,2.005 564.800 C 2.533 564.800,2.800 565.068,2.800 565.600 C 2.800 566.133,3.067 566.400,3.600 566.400 C 4.132 566.400,4.400 566.667,4.400 567.195 C 4.400 567.814,4.756 568.047,6.000 568.246 C 6.880 568.387,7.600 568.659,7.600 568.851 C 7.600 569.049,90.796 569.200,200.000 569.200 C 328.000 569.200,392.400 569.066,392.400 568.800 C 392.400 568.580,392.772 568.400,393.226 568.400 C 394.390 568.400,395.600 567.679,395.600 566.986 C 395.600 566.664,395.960 566.400,396.400 566.400 C 396.933 566.400,397.200 566.133,397.200 565.600 C 397.200 565.160,397.464 564.800,397.786 564.800 C 398.479 564.800,399.200 563.590,399.200 562.426 C 399.200 561.972,399.380 561.600,399.600 561.600 C 399.866 561.600,400.000 469.000,400.000 284.600 C 400.000 100.200,399.866 7.600,399.600 7.600 C 399.380 7.600,399.200 7.228,399.200 6.774 C 399.200 5.610,398.479 4.400,397.786 4.400 C 397.464 4.400,397.200 4.040,397.200 3.600 C 397.200 3.067,396.933 2.800,396.400 2.800 C 395.868 2.800,395.600 2.533,395.600 2.005 C 395.600 1.386,395.244 1.153,394.000 0.954 C 393.120 0.813,392.400 0.541,392.400 0.349 C 392.400 0.151,309.204 0.000,200.000 0.000 C 72.000 0.000,7.600 0.134,7.600 0.400 M389.246 2.339 C 389.771 2.745,390.665 3.191,391.234 3.330 C 392.561 3.654,396.244 7.325,396.579 8.659 C 396.720 9.220,397.188 10.157,397.619 10.740 C 398.754 12.277,398.667 557.398,397.531 558.658 C 397.163 559.066,396.741 559.887,396.592 560.482 C 396.247 561.864,392.688 565.441,391.313 565.786 C 390.736 565.931,389.820 566.398,389.278 566.825 C 387.725 568.046,12.275 568.046,10.722 566.825 C 10.180 566.398,9.264 565.931,8.687 565.786 C 7.328 565.445,3.755 561.872,3.414 560.513 C 3.269 559.936,2.802 559.020,2.375 558.478 C 1.185 556.964,1.149 12.290,2.339 10.754 C 2.745 10.229,3.191 9.335,3.330 8.766 C 3.657 7.425,7.331 3.754,8.687 3.414 C 9.264 3.269,10.180 2.802,10.722 2.375 C 12.235 1.185,387.710 1.149,389.246 2.339 " stroke="none" fill="#9b9494" fill-rule="evenodd"></path><path id="path3" d="M24.900 13.629 C 24.185 13.846,23.600 14.162,23.600 14.331 C 23.600 14.501,22.970 14.867,22.201 15.145 C 19.882 15.984,14.808 22.823,14.802 25.120 C 14.801 25.406,14.519 26.183,14.176 26.847 C 12.770 29.566,12.730 47.612,14.125 49.741 C 14.438 50.220,14.832 51.239,15.000 52.006 C 15.167 52.773,15.641 53.829,16.052 54.354 C 16.463 54.879,16.800 55.478,16.800 55.686 C 16.800 56.348,20.130 59.388,22.200 60.615 C 25.135 62.354,34.673 62.434,37.676 60.744 C 39.865 59.513,43.200 56.500,43.200 55.755 C 43.200 55.472,43.438 55.096,43.729 54.920 C 44.632 54.374,46.155 48.834,46.179 46.012 C 46.230 39.721,41.755 31.774,37.400 30.421 C 36.740 30.217,35.390 29.750,34.400 29.384 C 32.286 28.604,28.419 28.760,26.582 29.699 C 22.981 31.541,21.826 30.614,23.600 27.304 C 24.040 26.484,24.400 25.538,24.400 25.203 C 24.400 24.682,25.555 23.486,27.983 21.492 C 29.420 20.312,32.931 20.903,34.607 22.607 C 37.057 25.098,37.987 25.594,40.211 25.597 C 46.778 25.606,45.981 18.693,38.941 14.581 C 36.812 13.337,27.864 12.731,24.900 13.629 M38.032 14.847 C 41.588 16.697,44.000 19.846,44.000 22.637 C 44.000 25.311,37.936 25.214,35.409 22.500 L 33.639 20.600 30.883 20.600 C 27.401 20.600,25.085 22.231,23.427 25.853 C 21.889 29.212,22.130 32.986,23.794 31.605 C 27.863 28.228,37.523 29.661,41.279 34.200 C 45.579 39.394,46.769 50.678,43.409 54.391 C 43.074 54.760,42.800 55.259,42.800 55.498 C 42.800 55.736,41.945 56.686,40.900 57.608 C 33.529 64.109,21.522 62.608,16.840 54.600 C 12.367 46.949,12.420 30.639,16.947 21.705 C 18.680 18.285,22.167 15.308,26.000 13.976 C 28.124 13.238,36.042 13.811,38.032 14.847 M27.710 37.188 C 19.244 39.200,20.970 54.497,29.671 54.568 C 38.167 54.638,39.892 39.138,31.600 37.233 C 29.570 36.767,29.489 36.766,27.710 37.188 M31.838 37.954 C 35.758 39.078,37.780 48.039,34.862 51.352 C 28.919 58.099,19.455 49.776,23.674 41.512 C 25.477 37.981,28.040 36.864,31.838 37.954 M76.340 88.182 C 63.526 101.042,52.795 112.034,52.493 112.610 C 51.713 114.098,50.639 112.920,75.656 138.006 C 101.866 164.288,99.649 162.216,100.867 161.565 C 101.635 161.155,144.816 118.169,147.958 114.686 L 148.916 113.624 147.501 111.912 C 144.801 108.646,100.796 64.800,100.219 64.800 C 99.899 64.800,89.154 75.322,76.340 88.182 M284.537 79.585 C 258.105 106.103,251.200 113.138,251.200 113.549 C 251.200 114.092,297.951 160.935,299.111 161.554 C 300.452 162.269,300.015 162.674,324.442 138.113 C 349.003 113.417,348.320 114.176,347.463 112.530 C 346.675 111.018,300.559 64.800,299.839 64.800 C 299.528 64.800,292.642 71.453,284.537 79.585 M124.293 89.307 C 137.332 102.346,148.000 113.219,148.000 113.470 C 148.000 114.059,102.100 160.124,100.867 160.773 C 100.079 161.187,99.807 161.149,99.123 160.532 C 94.412 156.276,52.967 114.164,52.865 113.529 C 52.730 112.687,99.222 65.600,100.188 65.600 C 100.407 65.600,111.254 76.268,124.293 89.307 M323.427 88.793 C 346.896 112.322,347.352 112.803,347.127 113.774 C 347.002 114.316,302.138 159.716,300.738 160.718 C 300.167 161.126,299.824 161.134,299.117 160.756 C 297.937 160.124,252.000 113.995,252.000 113.441 C 252.000 112.875,299.287 65.600,299.854 65.600 C 300.096 65.600,310.704 76.037,323.427 88.793 M28.425 73.090 C 26.695 73.772,13.303 87.957,13.486 88.914 C 13.737 90.229,28.360 104.800,29.429 104.800 C 30.233 104.800,30.683 104.382,39.809 95.141 C 46.812 88.050,46.982 89.344,37.838 80.179 C 30.778 73.103,29.958 72.485,28.425 73.090 M38.347 81.697 C 43.244 86.629,44.572 88.190,44.471 88.897 C 44.297 90.115,30.468 104.000,29.429 104.000 C 28.496 104.000,14.468 90.201,14.160 88.980 C 13.932 88.074,27.665 73.825,29.076 73.503 C 29.954 73.302,30.429 73.723,38.347 81.697 M76.361 259.291 C 63.581 272.101,52.785 283.059,52.370 283.643 L 51.614 284.704 53.155 286.452 C 56.965 290.774,99.671 333.200,100.212 333.200 C 100.942 333.200,148.800 285.331,148.800 284.600 C 148.800 283.863,100.942 236.000,100.206 236.000 C 99.871 236.000,89.140 246.481,76.361 259.291 M275.806 259.500 C 248.803 286.621,251.200 284.176,251.200 284.600 C 251.200 285.024,248.803 282.579,275.806 309.700 C 288.675 322.625,299.475 333.200,299.806 333.200 C 300.413 333.200,346.050 287.777,347.528 285.702 L 348.324 284.583 347.501 283.454 C 345.910 281.270,300.418 236.000,299.815 236.000 C 299.479 236.000,288.675 246.575,275.806 259.500 M100.858 237.231 C 101.599 237.627,137.069 272.994,144.719 280.964 L 148.039 284.422 147.253 285.511 C 146.098 287.113,101.820 331.454,100.865 331.965 C 100.418 332.204,99.987 332.400,99.907 332.400 C 99.673 332.400,53.683 286.277,53.053 285.411 C 52.567 284.741,52.563 284.503,53.026 283.841 C 53.637 282.969,99.631 236.800,99.889 236.800 C 99.979 236.800,100.415 236.994,100.858 237.231 M319.082 255.564 C 349.326 285.884,347.768 284.225,347.021 285.292 C 346.442 286.121,302.824 330.039,300.899 331.732 C 300.240 332.311,299.897 332.373,299.256 332.030 C 298.343 331.542,253.568 286.704,252.571 285.280 C 251.839 284.234,249.984 286.200,281.914 254.183 C 297.199 238.856,299.302 236.846,300.082 236.812 C 300.238 236.805,308.788 245.244,319.082 255.564 M76.292 430.500 C 50.651 456.255,51.710 455.095,52.489 456.583 C 53.253 458.040,99.512 504.400,100.203 504.400 C 100.663 504.400,137.598 467.785,141.821 463.142 C 142.492 462.404,143.572 461.350,144.221 460.800 C 144.870 460.250,146.195 458.853,147.166 457.696 L 148.932 455.592 147.966 454.522 C 144.958 451.189,101.654 408.055,100.926 407.666 C 100.446 407.410,99.926 407.200,99.770 407.200 C 99.615 407.200,89.050 417.685,76.292 430.500 M299.000 407.684 C 297.848 408.346,251.200 455.154,251.200 455.648 C 251.200 456.411,299.080 504.400,299.840 504.400 C 300.550 504.400,346.682 458.162,347.462 456.670 C 347.993 455.653,347.982 455.431,347.359 454.470 C 346.403 452.994,300.696 407.189,300.200 407.209 C 299.980 407.217,299.440 407.431,299.000 407.684 M100.926 408.457 C 102.124 409.084,148.000 455.149,148.000 455.725 C 148.000 456.286,100.749 503.600,100.188 503.600 C 99.221 503.600,52.730 456.513,52.865 455.670 C 52.976 454.977,99.306 408.000,99.879 408.000 C 99.974 408.000,100.446 408.206,100.926 408.457 M323.734 431.441 C 347.109 454.991,347.541 455.461,346.909 456.591 C 346.323 457.638,300.311 503.600,299.849 503.600 C 299.278 503.600,252.000 456.318,252.000 455.746 C 252.000 455.235,297.807 409.175,299.000 408.486 C 299.440 408.232,299.950 408.019,300.134 408.012 C 300.317 408.005,310.937 418.548,323.734 431.441 M362.300 471.972 C 356.567 477.751,354.800 479.769,354.800 480.537 C 354.800 482.320,369.347 496.551,370.860 496.248 C 371.685 496.083,374.185 493.848,379.432 488.584 C 387.806 480.183,387.571 480.704,384.457 477.472 C 375.582 468.258,371.454 464.398,370.486 464.406 C 370.109 464.409,366.425 467.814,362.300 471.972 M378.714 472.525 C 382.721 476.553,386.000 480.139,386.000 480.493 C 386.000 481.324,372.050 495.389,370.937 495.680 C 369.726 495.997,355.330 481.625,355.539 480.308 C 355.738 479.057,369.554 465.200,370.603 465.200 C 371.142 465.200,373.958 467.743,378.714 472.525 M364.647 507.467 C 361.542 508.341,355.847 513.295,355.370 515.538 C 355.246 516.122,354.846 517.410,354.481 518.400 C 353.603 520.782,353.644 526.513,354.550 528.200 C 354.905 528.860,355.196 529.728,355.198 530.129 C 355.205 532.269,360.115 538.007,362.600 538.779 C 363.260 538.983,364.610 539.450,365.600 539.816 C 367.714 540.596,371.581 540.440,373.418 539.501 C 377.018 537.660,378.090 538.486,376.400 541.800 C 375.960 542.663,375.600 543.583,375.600 543.843 C 375.600 544.505,373.528 546.800,372.931 546.800 C 372.661 546.800,372.265 547.112,372.052 547.493 C 371.217 548.984,367.212 548.443,365.393 546.593 C 362.943 544.102,362.013 543.606,359.789 543.603 C 353.128 543.594,354.077 550.764,361.253 554.667 C 363.848 556.078,374.406 556.426,375.858 555.147 C 376.266 554.788,377.050 554.357,377.600 554.189 C 379.837 553.504,385.200 546.349,385.200 544.049 C 385.200 543.780,385.483 543.012,385.830 542.342 C 387.220 539.654,387.258 521.569,385.878 519.463 C 385.563 518.982,385.168 517.961,385.000 517.194 C 384.833 516.427,384.359 515.371,383.948 514.846 C 383.537 514.321,383.200 513.722,383.200 513.514 C 383.200 512.819,379.621 509.548,377.700 508.487 C 375.820 507.449,367.126 506.770,364.647 507.467 M377.000 508.938 C 383.883 512.414,386.184 517.891,386.184 530.800 C 386.184 541.781,384.714 546.823,380.198 551.339 C 372.568 558.969,356.000 555.699,356.000 546.563 C 356.000 543.889,362.064 543.986,364.591 546.700 L 366.361 548.600 369.097 548.600 C 371.600 548.600,371.977 548.485,373.535 547.252 C 377.307 544.264,379.517 535.431,375.911 537.754 C 371.058 540.881,362.447 539.502,358.721 535.000 C 354.416 529.800,353.254 519.665,356.441 515.116 C 356.858 514.520,357.200 513.874,357.200 513.681 C 357.200 512.474,362.621 508.687,365.400 507.951 C 367.986 507.267,374.847 507.851,377.000 508.938 M368.529 514.659 C 363.049 515.850,361.101 525.912,365.468 530.471 C 367.561 532.655,373.419 532.675,375.268 530.504 C 380.965 523.817,376.347 512.959,368.529 514.659 M373.825 516.417 C 374.797 517.086,375.702 518.069,375.836 518.600 C 375.969 519.132,376.331 519.777,376.639 520.033 C 379.322 522.259,375.790 530.738,371.900 531.411 C 366.230 532.392,363.042 528.199,364.095 521.146 C 364.875 515.922,369.698 513.577,373.825 516.417 " stroke="none" fill="#fc7c7c" fill-rule="evenodd"></path><path id="path4" d="M26.000 13.976 C 22.167 15.308,18.680 18.285,16.947 21.705 C 12.420 30.639,12.367 46.949,16.840 54.600 C 21.522 62.608,33.529 64.109,40.900 57.608 C 41.945 56.686,42.800 55.736,42.800 55.498 C 42.800 55.259,43.074 54.760,43.409 54.391 C 46.769 50.678,45.579 39.394,41.279 34.200 C 37.523 29.661,27.863 28.228,23.794 31.605 C 22.130 32.986,21.889 29.212,23.427 25.853 C 25.085 22.231,27.401 20.600,30.883 20.600 L 33.639 20.600 35.409 22.500 C 37.936 25.214,44.000 25.311,44.000 22.637 C 44.000 19.846,41.588 16.697,38.032 14.847 C 36.042 13.811,28.124 13.238,26.000 13.976 M37.605 15.250 C 40.872 16.969,41.939 18.010,42.649 20.168 C 43.016 21.286,43.390 22.399,43.479 22.643 C 44.280 24.824,37.624 24.281,35.600 22.000 C 31.066 16.890,22.000 21.904,22.000 29.522 C 22.000 32.426,22.611 33.178,24.051 32.046 C 26.556 30.076,35.441 30.143,38.136 32.153 C 41.832 34.909,43.871 38.353,44.327 42.610 C 44.764 46.687,44.193 52.206,43.188 53.617 C 42.754 54.226,42.400 54.876,42.400 55.062 C 42.399 55.381,41.284 56.575,39.339 58.340 C 38.866 58.770,38.056 59.248,37.539 59.402 C 37.023 59.557,36.150 59.972,35.600 60.325 C 33.946 61.387,27.403 61.491,25.174 60.491 C 24.198 60.053,22.978 59.566,22.462 59.409 C 21.260 59.041,17.802 55.666,17.431 54.498 C 17.275 54.007,16.924 53.379,16.651 53.102 C 16.377 52.826,15.845 51.430,15.467 50.000 C 15.089 48.570,14.608 46.770,14.399 46.000 C 13.906 44.183,13.906 32.617,14.399 30.800 C 14.609 30.030,15.099 28.210,15.490 26.756 C 15.880 25.301,16.403 23.861,16.651 23.556 C 16.899 23.250,17.237 22.550,17.402 22.000 C 18.180 19.402,22.352 15.926,26.600 14.337 C 28.438 13.650,35.710 14.253,37.605 15.250 M26.548 37.004 C 20.529 39.757,19.944 49.607,25.546 53.886 C 27.803 55.610,31.580 55.514,33.908 53.672 C 42.053 47.226,35.692 32.822,26.548 37.004 M31.600 37.233 C 39.892 39.138,38.167 54.638,29.671 54.568 C 19.866 54.488,19.608 37.614,29.400 36.851 C 29.620 36.834,30.610 37.006,31.600 37.233 M76.260 89.143 C 57.916 107.497,52.759 112.872,52.865 113.529 C 52.967 114.164,94.412 156.276,99.123 160.532 C 99.807 161.149,100.079 161.187,100.867 160.773 C 102.100 160.124,148.000 114.059,148.000 113.470 C 148.000 112.912,100.746 65.600,100.188 65.600 C 99.970 65.600,89.202 76.194,76.260 89.143 M275.707 89.307 C 262.668 102.346,252.000 113.206,252.000 113.441 C 252.000 113.995,297.937 160.124,299.117 160.756 C 300.361 161.421,298.803 162.879,324.231 137.261 C 347.111 114.210,347.543 113.741,346.907 112.605 C 346.316 111.549,300.321 65.600,299.854 65.600 C 299.612 65.600,288.746 76.268,275.707 89.307 M100.841 66.822 C 101.853 67.364,146.303 111.871,146.847 112.887 C 147.385 113.892,149.257 111.890,125.000 136.259 C 113.340 147.973,103.313 158.101,102.718 158.766 C 100.421 161.333,101.999 162.636,76.600 137.197 C 63.840 124.416,53.339 113.892,53.263 113.810 C 53.188 113.727,53.292 113.364,53.495 113.002 C 53.898 112.283,99.547 66.400,99.860 66.400 C 99.966 66.400,100.408 66.590,100.841 66.822 M321.604 87.694 C 345.653 111.784,346.911 113.080,346.731 113.572 C 346.411 114.442,300.330 160.400,299.777 160.400 C 299.306 160.400,257.160 118.612,253.468 114.485 C 252.375 113.263,251.738 113.964,275.984 89.691 C 296.683 68.969,299.292 66.447,300.073 66.412 C 300.223 66.405,309.912 75.982,321.604 87.694 M29.076 73.503 C 27.665 73.825,13.932 88.074,14.160 88.980 C 14.468 90.201,28.496 104.000,29.429 104.000 C 30.468 104.000,44.297 90.115,44.471 88.897 C 44.572 88.190,43.244 86.629,38.347 81.697 C 30.429 73.723,29.954 73.302,29.076 73.503 M36.992 81.009 C 40.898 84.916,44.000 88.339,44.000 88.742 C 44.000 89.491,30.241 103.600,29.510 103.600 C 28.953 103.600,16.081 90.891,15.192 89.464 L 14.485 88.328 21.543 81.199 C 25.424 77.278,28.912 74.054,29.292 74.035 C 29.684 74.015,33.028 77.044,36.992 81.009 M76.648 259.931 C 50.998 285.642,52.244 284.296,53.053 285.411 C 53.683 286.277,99.673 332.400,99.907 332.400 C 99.987 332.400,100.418 332.204,100.865 331.965 C 101.820 331.454,146.098 287.113,147.253 285.511 L 148.039 284.422 144.719 280.964 C 142.894 279.062,132.459 268.541,121.532 257.584 C 104.162 240.167,100.655 236.800,99.889 236.800 C 99.798 236.800,89.340 247.209,76.648 259.931 M299.114 237.224 C 298.498 237.583,276.325 259.691,258.665 277.554 C 252.047 284.249,251.942 284.382,252.571 285.280 C 253.568 286.704,298.343 331.542,299.256 332.030 C 299.897 332.373,300.240 332.311,300.899 331.732 C 302.824 330.039,346.442 286.121,347.021 285.292 C 347.642 284.405,347.544 284.271,342.728 279.357 C 330.927 267.316,300.339 236.801,300.082 236.812 C 299.927 236.819,299.491 237.004,299.114 237.224 M123.857 260.670 C 147.536 284.397,147.341 284.189,146.775 285.247 C 146.147 286.421,101.363 331.094,100.558 331.350 C 99.419 331.711,52.935 285.203,53.473 284.240 C 54.666 282.109,99.807 237.612,100.540 237.845 C 100.974 237.982,111.467 248.254,123.857 260.670 M323.265 260.592 C 347.591 285.039,346.894 284.304,346.471 285.059 C 345.307 287.138,300.249 331.606,299.536 331.380 C 298.712 331.118,253.862 286.436,253.221 285.239 C 253.015 284.854,253.019 284.309,253.231 283.930 C 253.742 283.017,298.589 238.145,299.255 237.880 C 299.555 237.761,299.932 237.649,300.093 237.632 C 300.255 237.614,310.682 247.946,323.265 260.592 M76.353 431.414 C 63.211 444.589,52.941 455.196,52.865 455.670 C 52.730 456.513,99.221 503.600,100.188 503.600 C 100.749 503.600,148.000 456.286,148.000 455.725 C 148.000 455.149,102.124 409.084,100.926 408.457 C 100.446 408.206,99.974 408.000,99.879 408.000 C 99.783 408.000,89.197 418.536,76.353 431.414 M299.000 408.486 C 297.807 409.175,252.000 455.235,252.000 455.746 C 252.000 456.318,299.278 503.600,299.849 503.600 C 300.311 503.600,346.323 457.638,346.909 456.591 C 347.099 456.252,347.197 455.729,347.127 455.428 C 346.975 454.773,300.613 407.995,300.134 408.012 C 299.950 408.019,299.440 408.232,299.000 408.486 M103.517 411.261 C 104.553 412.382,114.580 422.510,125.800 433.767 C 149.089 457.134,147.384 455.310,146.858 456.292 C 146.301 457.332,101.831 501.848,100.795 502.403 C 99.701 502.988,102.151 505.294,76.259 479.315 C 55.375 458.362,52.901 455.788,53.263 455.390 C 53.339 455.308,63.840 444.784,76.600 432.003 C 102.650 405.912,100.269 407.746,103.517 411.261 M323.514 432.041 C 336.211 444.823,346.659 455.439,346.731 455.632 C 346.901 456.091,303.930 499.679,300.695 502.328 C 299.645 503.188,299.486 503.042,275.981 479.496 C 252.295 455.771,252.436 455.923,253.272 454.909 C 255.501 452.210,299.296 408.800,299.792 408.800 C 300.141 408.800,310.816 419.258,323.514 432.041 M362.728 472.316 C 358.825 476.255,355.617 479.823,355.539 480.308 C 355.330 481.625,369.726 495.997,370.937 495.680 C 372.050 495.389,386.000 481.324,386.000 480.493 C 386.000 479.508,371.594 465.200,370.603 465.200 C 370.063 465.200,367.331 467.669,362.728 472.316 M377.519 472.100 C 381.134 475.675,384.413 479.113,384.806 479.739 L 385.519 480.879 378.372 488.039 C 374.441 491.978,370.953 495.200,370.621 495.200 C 369.549 495.200,356.000 481.270,356.000 480.169 C 356.000 479.636,356.162 479.200,356.360 479.200 C 356.558 479.200,357.323 478.574,358.060 477.808 C 366.554 468.984,369.892 465.687,370.373 465.647 C 370.688 465.621,373.903 468.525,377.519 472.100 M365.400 507.951 C 362.621 508.687,357.200 512.474,357.200 513.681 C 357.200 513.874,356.858 514.520,356.441 515.116 C 353.254 519.665,354.416 529.800,358.721 535.000 C 362.447 539.502,371.058 540.881,375.911 537.754 C 379.517 535.431,377.307 544.264,373.535 547.252 C 371.977 548.485,371.600 548.600,369.097 548.600 L 366.361 548.600 364.591 546.700 C 362.064 543.986,356.000 543.889,356.000 546.563 C 356.000 555.699,372.568 558.969,380.198 551.339 C 387.141 544.396,388.770 524.186,383.159 514.600 C 380.013 509.226,371.967 506.214,365.400 507.951 M375.885 509.100 C 378.874 510.317,381.896 512.951,382.769 515.100 C 383.059 515.815,383.432 516.400,383.596 516.400 C 383.761 516.400,384.116 517.525,384.386 518.900 C 384.655 520.275,385.081 521.649,385.331 521.954 C 385.960 522.717,386.223 535.742,385.657 538.045 C 384.559 542.514,383.763 545.134,383.349 545.644 C 383.101 545.950,382.775 546.602,382.624 547.094 C 382.309 548.122,381.203 549.543,379.200 551.495 C 372.093 558.419,356.400 554.765,356.400 546.186 C 356.400 545.702,359.214 545.138,360.846 545.295 C 362.632 545.466,363.071 545.702,364.400 547.200 C 368.934 552.310,378.000 547.296,378.000 539.678 C 378.000 536.721,377.270 535.829,375.888 537.098 C 373.675 539.131,364.606 539.104,361.882 537.057 C 360.199 535.792,357.611 533.067,357.605 532.554 C 357.602 532.309,357.258 531.673,356.839 531.141 C 355.075 528.898,355.060 517.954,356.818 515.516 C 357.248 514.920,357.600 514.290,357.600 514.116 C 357.601 513.942,358.147 513.260,358.816 512.600 C 359.484 511.940,360.333 511.085,360.704 510.700 C 361.075 510.315,361.524 510.000,361.702 510.000 C 361.880 510.000,362.695 509.695,363.513 509.322 C 366.028 508.175,366.495 508.081,369.892 508.040 C 372.621 508.007,373.646 508.188,375.885 509.100 M367.600 514.424 C 360.202 517.547,360.807 529.969,368.485 532.579 L 370.717 533.338 373.054 532.328 C 376.166 530.984,377.806 528.745,378.078 525.468 C 378.183 524.194,378.122 523.397,377.940 523.683 C 377.760 523.967,377.609 524.832,377.606 525.605 C 377.588 529.691,373.039 532.921,368.600 532.000 C 362.526 530.739,360.812 520.874,365.892 516.403 C 370.248 512.568,376.448 515.183,377.741 521.400 C 377.832 521.840,377.928 521.580,377.954 520.822 C 378.093 516.672,371.673 512.705,367.600 514.424 " stroke="none" fill="#fc7474" fill-rule="evenodd"></path></g></svg>